<svg id="Layer_1" xmlns="http://www.w3.org/2000/svg" viewBox="0 0 138.2 86.8"><style>
    .st0{ fill:#1f52b2}.st1{fill:#2e95ff}.st3{fill:#112c61}
    @media (prefers-color-scheme: dark) {
    .st0{fill:#2e95ff}.st1{fill:#65b0fb}.st3{fill:#0063c7}
    }
</style><path class="st0" d="M66.7 49.6v36.3h19.6v-6c-10.4-6.6-17.8-17.6-19.6-30.3z"></path><path class="st1" d="M109.7 19.7c5.6.1 11.4 2.5 16.5 6.7l12.1-15.8c-.1 0-1.3-1.1-2.5-1.9-2.6-2.2-11-8.6-26-8.6C101 0 93 2.5 86.2 6.8v32.5c1.9-11 11.4-19.1 23.5-19.6z"></path><path class="st0" d="M109.7 67c-10.8-.8-21.4-8.9-23.4-19.9V80c6.8 4.3 14.8 6.9 23.4 6.9 16.3 0 26.7-9.1 28.4-10.8l-11.9-15.6c-4.9 4-11.1 6.4-16.5 6.5z"></path><path d="m62 .9-28.6 79 2.1 6h14.8L82.2.9z" style="fill:#7d7c80"></path><path class="st3" d="M86.2 6.8c-12 7.7-20 21-20 36.4v.2c0 2.1.2 4.2.5 6.2 1.8 12.7 9.2 23.7 19.6 30.4V47.1c-.2-1.2-.3-2.5-.3-3.7 0-1.4.1-2.7.3-4V6.8zM5.7.9H0v85h20.1V41.8"></path><path class="st0" d="M62 .9 42.9 53l-9.5 26.9 2.1 6h14.8C63.2 51 65 46.4 66.2 43.2c.1-15.3 8-28.7 20-36.4V.9H62z"></path><path d="M33.4 79.9z" style="fill:#8c8e91"></path><path class="st1" d="M23.9.9H5.7s27.6 78.6 27.7 79L42.9 53 23.9.9z"></path></svg>
